<?xml version="1.0" standalone="no"?>
<!DOCTYPE svg PUBLIC "-//W3C//DTD SVG 20010904//EN"
 "http://www.w3.org/TR/2001/REC-SVG-20010904/DTD/svg10.dtd">
<svg version="1.0" xmlns="http://www.w3.org/2000/svg"
 width="500.000000pt" height="500.000000pt" viewBox="0 0 500.000000 500.000000"
 preserveAspectRatio="xMidYMid meet">

<g transform="translate(0.000000,500.000000) scale(0.100000,-0.100000)"
fill="#000000" stroke="none">
<path d="M2750 3743 c-28 -43 -29 -48 -13 -55 10 -3 36 -7 58 -7 33 0 37 2 25
12 -20 16 -48 53 -34 44 7 -4 12 3 12 18 0 42 -16 38 -48 -12z"/>
<path d="M2586 3668 c-10 -37 -7 -58 8 -58 16 0 29 41 20 64 -9 23 -21 20 -28
-6z"/>
<path d="M2481 3587 c-6 -16 -11 -42 -11 -59 0 -27 3 -30 23 -24 12 4 34 9 48
12 21 5 25 11 21 26 -3 15 -7 16 -13 7 -9 -15 -8 -16 -37 31 l-21 34 -10 -27z"/>
<path d="M1930 3580 c-11 -7 -5 -8 20 -4 43 8 51 14 19 14 -13 0 -31 -5 -39
-10z"/>
<path d="M2596 3558 c-9 -12 -16 -37 -16 -55 0 -46 27 -58 80 -37 43 18 50 29
22 38 -10 4 -26 22 -35 41 -19 41 -30 43 -51 13z"/>
<path d="M1907 3540 c3 -8 13 -21 21 -27 12 -10 13 -18 5 -35 -11 -26 -6 -51
8 -42 6 3 16 0 24 -6 8 -7 15 -11 15 -9 0 2 4 19 9 37 9 29 6 37 -20 67 -30
34 -72 45 -62 15z m43 -10 c0 -5 -7 -10 -15 -10 -8 0 -15 5 -15 10 0 6 7 10
15 10 8 0 15 -4 15 -10z"/>
<path d="M2826 3509 c-32 -37 -33 -53 -4 -73 44 -31 98 -15 98 29 0 19 -47 75
-62 75 -3 0 -18 -14 -32 -31z"/>
<path d="M2976 3489 c-16 -23 -15 -24 27 -44 23 -12 45 -18 49 -15 4 3 11 21
14 39 6 30 5 32 -12 23 -20 -10 -45 -5 -55 11 -4 5 -14 -1 -23 -14z"/>
<path d="M2047 3430 c-34 -30 -35 -30 -41 -8 -5 22 -6 22 -20 3 -8 -11 -12
-23 -10 -27 3 -4 -2 -5 -10 -2 -11 4 -16 0 -16 -10 0 -9 6 -19 14 -22 8 -3 16
-18 20 -35 4 -23 11 -29 30 -29 23 0 24 2 15 32 -11 41 -11 58 0 58 5 0 12
-16 15 -35 6 -28 11 -35 29 -34 25 0 69 17 49 18 -7 1 -24 12 -39 25 -29 27
-25 61 8 71 23 8 47 -13 73 -63 9 -18 19 -32 21 -32 3 0 -8 27 -25 60 -36 71
-60 77 -113 30z"/>
<path d="M2424 3373 c10 -93 13 -118 15 -125 3 -19 127 -68 231 -91 201 -46
287 -42 273 13 -7 25 -12 25 -29 3 -12 -17 -14 -17 -33 4 -31 32 -88 58 -104
45 -15 -13 -32 5 -34 36 -2 40 -3 42 -23 42 -11 0 -20 5 -20 11 0 6 -6 9 -14
6 -8 -3 -20 1 -26 9 -7 8 -18 14 -25 14 -7 0 -56 20 -108 45 -53 25 -99 45
-103 45 -3 0 -4 -26 0 -57z m64 -41 c18 -12 4 -42 -19 -42 -14 0 -19 7 -19 25
0 25 14 31 38 17z m223 -71 c4 -3 10 -16 14 -28 5 -17 2 -23 -9 -23 -9 0 -16
4 -16 8 0 12 -50 33 -61 27 -5 -4 -9 1 -9 9 0 9 5 16 11 16 5 0 8 4 4 10 -6 9
54 -7 66 -19z"/>
<path d="M2212 3370 c7 -11 17 -20 22 -20 5 0 1 9 -9 20 -10 11 -20 20 -22 20
-2 0 2 -9 9 -20z"/>
<path d="M2805 3260 c-3 -5 5 -12 19 -16 14 -3 30 -12 37 -20 6 -8 15 -14 20
-14 10 0 -10 41 -26 52 -14 11 -43 10 -50 -2z"/>
<path d="M2962 3241 c-11 -6 -10 -10 4 -15 20 -8 32 0 18 14 -5 5 -15 5 -22 1z"/>
<path d="M2060 3231 c0 -5 5 -13 10 -16 6 -3 10 -2 10 4 0 5 -4 13 -10 16 -5
3 -10 2 -10 -4z"/>
<path d="M2430 3179 c0 -42 6 -51 48 -76 32 -20 32 -21 10 -27 -15 -4 -27 0
-35 11 -12 15 -13 15 -13 -3 0 -12 -13 -26 -34 -38 -32 -17 -35 -17 -66 -1
-18 9 -57 19 -87 22 -39 4 -57 11 -64 25 -20 37 -43 58 -64 58 -12 0 -26 5
-33 12 -9 9 -12 9 -12 0 0 -7 -5 -12 -11 -12 -5 0 -7 5 -3 12 4 7 3 8 -4 4
-12 -7 -10 -35 8 -96 9 -31 7 -37 -21 -66 l-32 -33 -34 34 c-76 74 -207 85
-291 25 -23 -15 -26 -15 -73 8 -109 54 -291 53 -405 -3 -80 -39 -163 -127
-209 -221 -34 -68 -38 -87 -43 -171 -8 -156 43 -286 147 -375 l43 -37 -36 -15
c-81 -34 -150 -110 -179 -197 -18 -54 -33 -244 -19 -235 6 3 8 15 5 26 -5 21
11 28 22 10 12 -19 23 -10 35 25 10 30 9 40 -9 68 -27 45 -24 113 9 153 15 19
21 22 15 9 -8 -23 -9 -28 -7 -72 4 -66 51 -24 67 58 4 19 15 40 25 47 17 10
20 8 25 -26 4 -20 7 -41 8 -45 1 -4 31 13 67 37 36 25 72 46 81 46 9 0 30 5
48 11 34 12 42 42 15 57 -13 7 -10 10 16 16 18 3 35 4 38 1 3 -3 6 -36 7 -75
2 -65 -5 -84 -20 -60 -4 6 -14 9 -23 8 -12 -2 -16 3 -15 20 3 22 2 22 -25 8
-16 -8 -35 -22 -43 -32 -13 -15 -12 -16 9 -10 23 8 82 -9 82 -23 0 -3 9 -12
20 -19 17 -10 23 -10 36 3 10 9 13 23 9 36 -4 13 -1 27 11 40 10 11 12 19 6
19 -7 0 -12 7 -12 15 0 8 5 15 11 15 7 0 9 10 7 24 -4 18 -1 22 13 19 10 -3
39 2 65 11 26 9 49 14 51 12 3 -2 -4 -21 -15 -43 -11 -21 -17 -44 -14 -52 4
-11 -4 -13 -43 -8 -41 6 -46 5 -35 -8 7 -8 23 -15 36 -15 28 0 32 -15 7 -24
-14 -6 -11 -12 16 -40 25 -25 35 -46 38 -79 5 -45 -11 -117 -27 -117 -12 0 -6
61 9 88 15 28 5 68 -22 87 -19 13 -23 13 -39 -5 -10 -11 -27 -20 -37 -20 -10
0 -31 -6 -45 -14 l-27 -13 33 -29 c48 -43 76 -107 57 -131 -7 -7 -9 -16 -5
-20 3 -3 6 0 6 8 0 12 2 11 11 -1 9 -12 10 -12 5 3 -4 12 -2 17 6 14 7 -2 18
3 23 10 6 8 27 15 48 16 30 2 39 7 44 25 6 25 -1 96 -13 127 -5 11 -4 16 3 12
6 -4 16 -27 23 -52 15 -54 3 -127 -35 -212 -23 -50 -23 -52 -5 -81 10 -17 40
-43 67 -59 44 -25 57 -28 143 -28 52 0 101 -4 108 -8 20 -14 136 -9 178 7 59
22 163 27 210 11 51 -19 131 -19 183 0 32 11 48 12 69 3 15 -6 72 -12 127 -12
84 -1 107 3 143 21 43 21 44 21 85 3 74 -32 188 -46 268 -32 38 7 87 20 107
29 23 10 58 15 92 14 30 -1 67 2 83 8 21 8 35 7 62 -6 34 -16 46 -33 25 -33
-6 0 -8 -12 -5 -27 l6 -28 -15 25 c-9 15 -15 19 -15 10 0 -33 92 -110 133
-110 16 0 33 61 21 79 -12 20 26 24 61 7 73 -34 187 -10 252 54 53 50 68 103
53 179 -6 30 -11 59 -11 64 0 10 50 5 82 -8 14 -6 15 -2 8 29 -11 51 -44 91
-93 115 -75 36 -113 19 -72 -35 22 -30 18 -35 -22 -28 -59 10 -65 19 -59 88
18 187 18 223 2 254 -21 41 -20 49 7 57 89 26 191 104 202 156 4 16 4 42 0 57
l-6 28 -45 -44 c-27 -26 -51 -41 -60 -38 -8 3 -14 -1 -14 -9 0 -8 -9 -15 -19
-15 -11 0 -23 -4 -26 -10 -3 -5 -14 -10 -23 -10 -14 1 -13 3 4 13 29 17 69 50
78 65 4 7 -9 1 -30 -13 -38 -26 -64 -32 -64 -16 0 5 -10 7 -22 4 -13 -3 -20
-3 -17 0 3 4 22 9 43 12 33 6 76 34 76 51 0 3 9 24 19 47 35 77 55 224 44 320
-6 47 -6 47 -24 28 -12 -13 -19 -35 -19 -59 0 -71 -41 -252 -62 -277 -5 -5 -1
13 7 40 21 70 29 178 19 271 -5 45 -10 67 -12 50 -3 -23 -6 -26 -14 -15 -7 10
-8 6 -3 -15 4 -18 0 -37 -9 -51 -14 -21 -14 -24 0 -29 13 -5 13 -9 -1 -35 -11
-22 -12 -30 -2 -34 9 -3 9 -9 -1 -29 -8 -13 -12 -31 -11 -39 4 -21 -11 -68
-47 -144 -12 -25 -32 -46 -54 -57 -35 -18 -28 -24 23 -20 9 1 17 -3 17 -9 0
-5 -4 -8 -9 -5 -9 6 -22 -17 -26 -46 -1 -12 5 -18 17 -18 21 0 23 -13 4 -29
-22 -19 -174 -25 -221 -9 -52 17 -74 58 -55 102 7 17 13 46 12 64 0 27 6 37
41 61 76 52 80 60 78 163 0 51 5 122 13 157 l13 64 -31 28 c-95 87 -244 103
-339 37 -26 -19 -30 -19 -68 -4 -41 17 -129 20 -164 7 -11 -5 -43 0 -80 12
-77 24 -91 32 -87 49 3 10 1 11 -9 1 -21 -20 -109 -16 -147 7 -41 25 -48 25
-55 0 -6 -25 -19 -25 -49 0 -81 68 -88 72 -117 65 -24 -5 -30 -2 -36 16 -6 17
-9 19 -16 8 -8 -11 -12 -10 -24 5 -14 19 -15 18 -15 -15z m-907 -220 c79 -22
136 -101 124 -175 -3 -19 -4 -34 -1 -34 2 0 22 38 45 85 47 100 74 120 148
112 61 -7 83 -35 120 -155 30 -95 122 -265 147 -269 6 -1 10 14 8 40 -11 175
-13 310 -4 327 23 44 114 63 180 39 28 -11 79 -80 110 -151 12 -27 26 -48 31
-48 7 0 7 17 3 48 -16 96 1 143 61 168 28 11 41 12 72 1 37 -12 38 -12 41 -72
3 -69 3 -61 -4 -185 -4 -56 -1 -129 6 -176 10 -68 9 -86 -3 -117 -22 -50 -68
-73 -119 -58 -55 17 -82 53 -113 150 -30 93 -40 111 -61 111 -20 0 -17 -18 12
-75 14 -27 27 -71 31 -97 5 -42 2 -50 -21 -71 -14 -14 -47 -30 -72 -37 -56
-16 -113 -2 -142 35 l-19 24 -19 -21 c-46 -51 -151 -64 -219 -25 -54 30 -65
69 -35 126 24 48 16 71 -25 71 -48 0 -55 -9 -55 -70 0 -88 -35 -118 -130 -110
-14 1 -32 6 -40 10 -9 5 -30 0 -55 -13 -31 -16 -63 -22 -146 -25 -97 -4 -109
-2 -156 21 -154 78 -200 318 -92 481 40 60 107 114 161 131 52 17 179 19 231
4z m1349 -35 c-4 -20 15 -43 40 -49 39 -9 57 -18 52 -26 -3 -5 2 -6 10 -3 11
4 16 0 16 -10 0 -9 9 -34 20 -55 l19 -39 -27 -53 c-33 -67 -48 -84 -56 -66 -3
6 -5 -7 -3 -30 1 -23 1 -40 -2 -38 -2 3 -11 -10 -20 -28 -20 -39 -96 -84 -105
-61 -3 8 -1 14 3 14 18 0 72 60 65 71 -4 7 -3 9 3 6 14 -9 23 15 16 42 -3 12
-1 21 6 21 6 0 11 5 11 11 0 5 -4 8 -9 5 -5 -3 -11 1 -14 8 -13 32 -43 36 -78
11 -18 -14 -36 -25 -40 -25 -4 0 -14 19 -24 42 -9 24 -22 46 -28 50 -14 9 43
120 65 126 9 2 14 10 12 17 -4 9 3 11 23 8 23 -4 25 -2 13 7 -12 9 -9 10 15 6
29 -6 29 -6 10 10 -16 13 -40 15 -122 12 -57 -2 -103 0 -103 5 0 21 68 37 151
35 80 -3 85 -4 81 -24z m636 -8 c38 -20 61 -47 68 -84 7 -37 -11 -45 -21 -9
-12 37 -47 67 -92 79 -24 6 -43 14 -43 19 0 14 58 11 88 -5z m-294 -50 c8 -13
19 -49 25 -80 6 -31 13 -61 16 -67 4 -5 0 -9 -9 -9 -14 0 -28 33 -42 100 -3
19 -13 44 -20 55 -8 11 -14 23 -14 27 0 14 29 -3 44 -26z m-529 -169 c7 -91
-5 -203 -20 -200 -10 3 -25 290 -17 307 12 23 31 -33 37 -107z m667 71 c20
-15 24 -36 15 -63 -10 -29 -57 -31 -78 -4 -14 20 -14 23 10 50 29 33 31 34 53
17z m51 -314 c9 -43 2 -84 -13 -84 -6 0 -10 15 -10 34 0 18 -3 48 -7 66 -5 25
-3 32 8 28 7 -2 17 -22 22 -44z m552 -69 c-16 -14 -34 -25 -40 -25 -9 0 55 49
65 49 3 0 -8 -11 -25 -24z m-1225 -45 c-8 -5 -22 -9 -30 -9 -10 0 -8 3 5 9 27
12 43 12 25 0z m829 -14 l22 -23 -31 1 c-31 1 -34 4 -24 30 8 20 6 20 33 -8z
m128 -22 c-3 -3 -12 -4 -19 -1 -8 3 -5 6 6 6 11 1 17 -2 13 -5z m-499 -110
c29 -14 62 -39 73 -56 l22 -30 12 29 c35 82 225 62 225 -24 0 -28 -22 -74 -44
-93 -20 -15 -4 -40 25 -40 27 0 46 36 59 117 9 58 17 77 37 93 31 24 80 26
112 4 22 -16 23 -20 16 -88 -5 -39 -9 -106 -9 -148 0 -43 -4 -78 -7 -78 -3 0
-22 -16 -42 -36 -34 -34 -47 -60 -61 -126 -8 -35 -34 -36 -70 -3 -32 29 -34
68 -6 110 31 46 26 57 -22 53 l-43 -3 -5 -62 c-5 -68 -23 -98 -65 -109 -35 -9
-80 12 -94 43 l-12 26 -19 -30 c-31 -51 -100 -78 -200 -78 -141 1 -203 46
-204 151 -1 50 2 58 29 80 20 16 43 24 70 24 l40 0 -47 30 c-25 16 -53 39 -62
52 -34 48 -11 149 41 184 66 43 175 46 251 8z m-838 -16 c53 -20 78 -56 85
-123 9 -77 -10 -124 -61 -151 -18 -10 -34 -22 -34 -25 0 -4 22 -12 49 -19 59
-14 81 -36 88 -88 11 -85 -96 -142 -176 -92 -18 12 -35 30 -38 40 -5 18 -8 17
-33 -10 -33 -35 -76 -40 -121 -13 -36 21 -44 48 -34 111 4 26 10 103 13 172 9
162 20 183 115 206 52 12 99 10 147 -8z m210 12 c12 -8 9 -10 -11 -10 -14 0
-43 -11 -63 -25 -25 -17 -36 -20 -36 -11 0 18 22 35 57 46 37 11 36 11 53 0z
m-1402 -47 c-4 -22 -22 -20 -26 1 -2 10 3 16 13 16 10 0 15 -7 13 -17z m607
-3 c-3 -5 -12 -10 -19 -10 -7 0 -25 -9 -40 -21 -29 -23 -36 -7 -9 23 17 19 79
26 68 8z m205 5 c0 -3 -11 -18 -24 -33 -13 -15 -33 -38 -44 -52 -11 -14 -23
-22 -27 -18 -13 13 58 108 82 108 7 0 13 -2 13 -5z m-380 -91 c0 -8 -4 -12
-10 -9 -5 3 -10 13 -10 21 0 8 5 12 10 9 6 -3 10 -13 10 -21z m1080 -15 c-12
-40 -27 -66 -34 -58 -3 3 -9 19 -12 36 -5 27 -2 33 22 46 16 8 30 14 31 13 1
-1 -2 -18 -7 -37z m-760 -21 c0 -5 4 -7 9 -4 13 9 7 -22 -7 -36 -7 -7 -12 -18
-12 -26 0 -17 -40 -6 -57 17 -8 12 -9 18 0 23 9 6 8 10 -2 17 -11 7 -10 10 4
12 38 8 65 7 65 -3z m584 -60 c3 -18 8 -62 11 -98 3 -36 9 -76 11 -90 5 -24 5
-24 -10 -6 -16 20 -23 60 -29 164 -3 65 8 86 17 30z m263 -57 c-3 -24 -14 -55
-24 -70 -20 -26 -63 -41 -63 -22 0 6 6 11 14 11 27 0 46 42 46 101 0 30 3 59
7 63 13 12 25 -38 20 -83z m-1037 -19 c-1 -63 -26 -170 -35 -149 -4 10 -2 43
4 74 6 31 11 72 11 90 0 20 4 32 10 28 6 -3 10 -23 10 -43z m200 -123 c0 -17
5 -39 11 -51 13 -25 5 -35 -16 -18 -17 14 -21 100 -5 100 6 0 10 -14 10 -31z"/>
<path d="M1323 2742 c-22 -14 -34 -66 -34 -142 0 -73 12 -130 29 -130 12 0 53
29 89 63 25 24 44 31 85 35 51 4 54 6 85 56 17 28 30 53 28 54 -2 2 -14 -3
-27 -12 -42 -30 -119 -17 -168 28 -40 37 -74 56 -87 48z"/>
<path d="M1787 2720 c-18 -41 -14 -50 19 -50 18 0 24 5 24 23 0 13 -6 32 -14
43 -14 18 -15 17 -29 -16z"/>
<path d="M3086 2051 c-8 -13 13 -27 77 -51 68 -26 112 -66 124 -117 l10 -38 8
40 c7 34 -8 151 -20 164 -2 1 -14 -4 -27 -13 -30 -21 -66 -20 -111 4 -41 22
-53 24 -61 11z"/>
<path d="M3062 1890 c20 -11 40 -24 43 -30 3 -5 11 -10 16 -10 19 0 -2 20 -41
40 -22 11 -43 20 -47 20 -4 -1 9 -10 29 -20z"/>
<path d="M2211 2021 c-14 -25 -14 -58 -1 -66 12 -8 43 40 38 61 -5 25 -25 28
-37 5z"/>
<path d="M2975 3200 c-3 -5 -1 -10 4 -10 6 0 11 5 11 10 0 6 -2 10 -4 10 -3 0
-8 -4 -11 -10z"/>
<path d="M2108 3173 c7 -3 16 -2 19 1 4 3 -2 6 -13 5 -11 0 -14 -3 -6 -6z"/>
<path d="M3731 3013 c-16 -7 -61 -101 -60 -128 0 -11 8 0 17 25 25 65 41 90
65 100 12 5 15 9 7 9 -8 -1 -21 -3 -29 -6z"/>
<path d="M3941 2924 c0 -11 3 -14 6 -6 3 7 2 16 -1 19 -3 4 -6 -2 -5 -13z"/>
<path d="M3662 2840 c0 -14 2 -19 5 -12 2 6 2 18 0 25 -3 6 -5 1 -5 -13z"/>
<path d="M3811 2834 c0 -11 3 -14 6 -6 3 7 2 16 -1 19 -3 4 -6 -2 -5 -13z"/>
<path d="M3757 2795 c-4 -11 -19 -33 -33 -48 -14 -16 -24 -30 -22 -33 8 -7 70
76 65 89 -2 7 -7 3 -10 -8z"/>
<path d="M3831 2720 c-1 -14 -12 -52 -24 -85 -16 -43 -31 -65 -56 -82 -28 -19
-30 -23 -13 -23 11 0 32 13 45 30 29 33 60 131 54 163 -4 20 -4 19 -6 -3z"/>
<path d="M3795 2680 c3 -5 8 -10 11 -10 2 0 4 5 4 10 0 6 -5 10 -11 10 -5 0
-7 -4 -4 -10z"/>
<path d="M1144 2015 c-45 -42 -46 -46 -31 -63 10 -10 16 -33 15 -53 -1 -20 2
-41 6 -47 10 -17 46 -15 52 2 3 8 18 20 34 26 22 9 27 16 21 28 -35 70 -36
108 -4 126 16 9 16 10 -2 17 -35 13 -44 10 -91 -36z"/>
<path d="M1090 1891 c0 -5 5 -13 10 -16 6 -3 10 -2 10 4 0 5 -4 13 -10 16 -5
3 -10 2 -10 -4z"/>
<path d="M1050 1796 c0 -22 38 -82 46 -73 6 5 -33 97 -41 97 -3 0 -5 -11 -5
-24z"/>
<path d="M1002 1703 c10 -2 15 -10 11 -19 -3 -8 0 -14 7 -14 6 0 8 5 4 11 -11
18 48 1 62 -17 10 -13 12 -13 18 2 4 9 13 14 21 10 8 -3 15 -1 15 3 0 14 -27
20 -37 10 -7 -7 -23 -5 -48 5 -21 9 -45 15 -54 15 -14 -1 -14 -2 1 -6z"/>
<path d="M1110 1660 c0 -5 5 -10 11 -10 5 0 7 5 4 10 -3 6 -8 10 -11 10 -2 0
-4 -4 -4 -10z"/>
<path d="M1140 1656 c0 -2 8 -10 18 -17 15 -13 16 -12 3 4 -13 16 -21 21 -21
13z"/>
</g>
</svg>
